<?xml version="1.0" encoding="UTF-8" standalone="no" ?>
<!DOCTYPE svg PUBLIC "-//W3C//DTD SVG 1.1//EN" "http://www.w3.org/Graphics/SVG/1.1/DTD/svg11.dtd">
<svg xmlns="http://www.w3.org/2000/svg" xmlns:xlink="http://www.w3.org/1999/xlink" version="1.1" width="1280" height="729.0431362006069" viewBox="0 0 1280 729.0431362006069" xml:space="preserve">
<desc>Created with Fabric.js 5.3.0</desc>
<defs>
</defs>
<g transform="matrix(1 0 0 1 640 364.52156810030345)" id="background-logo"  >
<rect style="stroke: none; stroke-width: 0; stroke-dasharray: none; stroke-linecap: butt; stroke-dashoffset: 0; stroke-linejoin: miter; stroke-miterlimit: 4; fill: rgb(255,255,255); fill-opacity: 0; fill-rule: nonzero; opacity: 1;"  paint-order="stroke"  x="-744.3724725333715" y="-595.4979780266972" rx="0" ry="0" width="1488.744945066743" height="1190.9959560533944" />
</g>
<g transform="matrix(2.29037683856422 0 0 2.29037683856422 639.7795512292882 243.54773717203253)" id="logo-logo"  >
<g style=""  paint-order="stroke"   >
		<g transform="matrix(1.0633522530934538 0 0 1.0633522530934538 0 0)"  >
<g style=""  paint-order="stroke"   >
		<g transform="matrix(1 0 0 1 0 0)"  >
<path style="stroke: none; stroke-width: 1; stroke-dasharray: none; stroke-linecap: butt; stroke-dashoffset: 0; stroke-linejoin: miter; stroke-miterlimit: 4; fill: rgb(150,222,255); fill-rule: nonzero; opacity: 1;"  paint-order="stroke"  transform=" translate(-100, -100)" d="M 100 0 C 44.8 0 0 44.8 0 100 C 0 155.2 44.8 200 100 200 C 155.2 200 200 155.2 200 100 C 200 44.80000000000001 155.2 0 100 0 z M 100 190 C 50.4 190 10 149.6 10 100 C 10 50.400000000000006 50.4 10 100 10 C 149.6 10 190 50.4 190 100 C 190 149.6 149.6 190 100 190 z" stroke-linecap="round" />
</g>
</g>
</g>
</g>
</g>
<g transform="matrix(2.29037683856422 0 0 2.29037683856422 640 607.9980945085911)" id="text-logo"  >
<g style=""  paint-order="stroke"   >
		<g transform="matrix(1 0 0 1 0 0)" id="text-logo-path-0"  >
<path style="stroke: rgb(255,255,255); stroke-width: 0; stroke-dasharray: none; stroke-linecap: butt; stroke-dashoffset: 0; stroke-linejoin: miter; stroke-miterlimit: 4; fill: rgb(150,222,255); fill-rule: nonzero; opacity: 1;"  paint-order="stroke"  transform=" translate(-282.18, 18.425)" d="M 38.01 -8.09 L 30.14 -12.65 C 28.38 -10.01 25.41 -8.25 21.89 -8.25 C 16.28 -8.25 11.82 -12.76 11.82 -18.43 C 11.82 -24.09 16.34 -28.6 21.89 -28.6 C 25.41 -28.6 28.66 -26.73 30.47 -23.82 L 38.23 -28.32 C 34.76 -33.88 28.71 -37.45 21.89 -37.45 C 14.85 -37.45 8.63 -33.77 5.28 -27.94 C 3.58 -25.02 2.75 -21.84 2.75 -18.43 C 2.75 -11.61 6.38 -5.45 12.27 -1.98 C 15.18 -0.28 18.43 0.6 21.89 0.6 C 28.55 0.6 34.48 -2.81 38.01 -8.09 Z M 75.02 0 L 66.72 -13.31 C 71.11 -15.13 74.19 -19.47 74.19 -24.64 C 74.19 -31.3 69.03 -36.58 62.42 -36.85 L 44.27 -36.85 L 44.27 0 L 53.08 0 L 53.08 -12.38 L 56.59 -12.38 L 64.35 0 Z M 60.88 -20.07 L 53.08 -20.07 L 53.08 -29.15 L 60.88 -29.15 C 63.58 -29.15 65.39 -27.28 65.39 -24.59 C 65.39 -21.89 63.58 -20.07 60.88 -20.07 Z M 81.07 0 L 107.47 0 L 107.47 -7.7 L 89.87 -7.7 L 89.87 -14.57 L 104.17 -14.57 L 104.17 -22.27 L 89.87 -22.27 L 89.87 -29.15 L 107.47 -29.15 L 107.47 -36.85 L 81.07 -36.85 Z M 123.2 0 L 125.95 -7.15 L 139.37 -7.15 L 142.12 0 L 151.8 0 L 137.5 -36.85 L 127.82 -36.85 L 113.52 0 Z M 128.97 -14.85 L 132.66 -24.36 L 136.34 -14.85 Z M 168.3 0 L 168.3 -29.21 L 178.2 -29.21 L 178.2 -36.91 L 149.6 -36.91 L 149.6 -29.21 L 159.5 -29.21 L 159.5 0 Z M 184.25 0 L 210.65 0 L 210.65 -7.7 L 193.05 -7.7 L 193.05 -14.57 L 207.35 -14.57 L 207.35 -22.27 L 193.05 -22.27 L 193.05 -29.15 L 210.65 -29.15 L 210.65 -36.85 L 184.25 -36.85 Z M 235.84 0.6 C 242.88 0.6 249.1 -3.14 252.45 -8.96 C 254.16 -11.88 254.98 -15.02 254.98 -18.43 C 254.98 -25.25 251.35 -31.41 245.47 -34.87 C 242.55 -36.58 239.31 -37.45 235.84 -37.45 C 228.8 -37.45 222.59 -33.77 219.23 -27.94 C 217.53 -25.02 216.7 -21.84 216.7 -18.43 C 216.7 -11.61 220.33 -5.45 226.22 -1.98 C 229.13 -0.28 232.38 0.6 235.84 0.6 Z M 225.78 -18.43 C 225.78 -24.09 230.29 -28.6 235.84 -28.6 C 241.45 -28.6 245.91 -24.09 245.91 -18.43 C 245.91 -12.76 241.4 -8.25 235.84 -8.25 C 230.23 -8.25 225.78 -12.76 225.78 -18.43 Z M 269.83 0 L 269.83 -22.77 L 283.25 0 L 294.03 0 L 294.03 -36.85 L 285.23 -36.85 L 285.23 -13.97 L 271.76 -36.85 L 261.03 -36.85 L 261.03 0 Z M 300.08 0 L 318.34 0 C 326.81 0 331.6 -5 331.6 -12.27 C 331.6 -16.5 329.51 -19.41 325.99 -21.01 C 327.36 -22.44 328.13 -24.36 328.13 -26.79 C 328.13 -33 324.39 -36.85 317.13 -36.85 L 300.08 -36.85 Z M 319.61 -7.7 L 308.88 -7.7 L 308.88 -15.89 L 319.99 -15.89 C 322.63 -15.89 324.39 -14.19 324.39 -11.71 C 324.39 -9.29 322.63 -7.7 319.61 -7.7 Z M 317.41 -22.5 L 308.88 -22.5 L 308.88 -29.15 L 317.41 -29.15 C 319.99 -29.15 321.53 -28.05 321.53 -25.85 C 321.53 -23.59 319.99 -22.5 317.41 -22.5 Z M 347.33 0 L 350.08 -7.15 L 363.5 -7.15 L 366.25 0 L 375.93 0 L 361.63 -36.85 L 351.95 -36.85 L 337.65 0 Z M 353.1 -14.85 L 356.79 -24.36 L 360.47 -14.85 Z M 393.91 -37.4 C 385.39 -37.4 379.56 -32.95 379.56 -25.96 C 379.56 -20.41 382.8 -16.89 389.29 -15.46 L 396.88 -13.8 C 399.3 -13.31 400.51 -12.43 400.51 -11.17 C 400.51 -9.24 398.64 -8.25 394.9 -8.25 C 391.88 -8.25 388.8 -10.01 387.75 -12.81 L 378.68 -9.63 C 380.22 -3.02 386.49 0.55 394.41 0.55 C 399.52 0.55 404.36 -1.1 407.22 -4.67 C 408.65 -6.43 409.37 -8.63 409.37 -11.22 C 409.37 -16.77 406.07 -20.3 399.41 -21.78 L 391.88 -23.48 C 389.95 -23.93 388.63 -24.8 388.63 -25.96 C 388.63 -27.89 390.89 -28.6 393.8 -28.6 C 397.38 -28.6 399.69 -27.72 400.18 -24.7 L 408.65 -28 C 406.84 -34.16 401.17 -37.4 393.91 -37.4 Z M 415.42 0 L 441.82 0 L 441.82 -7.7 L 424.22 -7.7 L 424.22 -14.57 L 438.52 -14.57 L 438.52 -22.27 L 424.22 -22.27 L 424.22 -29.15 L 441.82 -29.15 L 441.82 -36.85 L 415.42 -36.85 Z M 468.22 -16.06 L 468.22 -36.85 L 459.42 -36.85 L 459.42 -16.06 C 459.42 -9.96 462.61 -4.67 467.67 -1.71 C 470.2 -0.22 472.95 0.55 475.97 0.55 C 481.91 0.55 487.25 -2.64 490.22 -7.75 C 491.7 -10.29 492.42 -13.04 492.42 -16.06 L 492.42 -36.85 L 483.62 -36.85 L 483.62 -16.06 C 483.62 -11.49 480.37 -8.03 475.97 -8.03 C 471.52 -8.03 468.22 -11.49 468.22 -16.06 Z M 507.27 0 L 507.27 -14.57 L 521.57 -14.57 L 521.57 -22.27 L 507.27 -22.27 L 507.27 -29.21 L 524.87 -29.21 L 524.87 -36.91 L 498.47 -36.85 L 498.47 0 Z M 546.15 -37.4 C 537.63 -37.4 531.8 -32.95 531.8 -25.96 C 531.8 -20.41 535.04 -16.89 541.53 -15.46 L 549.12 -13.8 C 551.54 -13.31 552.75 -12.43 552.75 -11.17 C 552.75 -9.24 550.88 -8.25 547.14 -8.25 C 544.12 -8.25 541.04 -10.01 539.99 -12.81 L 530.92 -9.63 C 532.46 -3.02 538.73 0.55 546.65 0.55 C 551.76 0.55 556.6 -1.1 559.46 -4.67 C 560.89 -6.43 561.61 -8.63 561.61 -11.22 C 561.61 -16.77 558.31 -20.3 551.65 -21.78 L 544.12 -23.48 C 542.19 -23.93 540.87 -24.8 540.87 -25.96 C 540.87 -27.89 543.13 -28.6 546.04 -28.6 C 549.62 -28.6 551.93 -27.72 552.42 -24.7 L 560.89 -28 C 559.08 -34.16 553.41 -37.4 546.15 -37.4 Z" stroke-linecap="round" />
</g>
</g>
</g>
<g transform="matrix(2.29037683856422 0 0 2.29037683856422 641.5179472497583 249.0022172664963)" id="tagline-206eda6f-b020-497c-ac50-dd45961185f2-logo"  >
<g style=""  paint-order="stroke"   >
		<g transform="matrix(1 0 0 1 0 0)" id="tagline-206eda6f-b020-497c-ac50-dd45961185f2-logo-path-0"  >
<path style="stroke: none; stroke-width: 0; stroke-dasharray: none; stroke-linecap: butt; stroke-dashoffset: 0; stroke-linejoin: miter; stroke-miterlimit: 4; fill: rgb(150,222,255); fill-rule: nonzero; opacity: 1;"  paint-order="stroke"  transform=" translate(-51.415, 46.2)" d="M 53.86 2.11 C 73 2.11 88.7 -7 96.49 -22.18 L 78.28 -33.26 C 74.18 -25.21 64.55 -18.74 53.86 -18.74 C 38.81 -18.74 27.72 -30.49 27.72 -46.07 C 27.72 -61.38 38.02 -73.66 53.86 -73.66 C 64.81 -73.66 74.98 -66.79 78.94 -57.68 L 97.15 -69.04 C 89.63 -84.61 74.32 -94.51 53.86 -94.51 C 26 -94.51 5.68 -75.24 5.68 -46.07 C 5.68 -18.22 24.82 2.11 53.86 2.11 Z" stroke-linecap="round" />
</g>
</g>
</g>
<g transform="matrix(2.29037683856422 0 0 2.29037683856422 641.2482553770176 716.9843021455663)" id="tagline-9a4d45eb-904d-4042-9e64-26c6a4f38656-logo"  >
<g style=""  paint-order="stroke"   >
		<g transform="matrix(1 0 0 1 0 0)" id="tagline-9a4d45eb-904d-4042-9e64-26c6a4f38656-logo-path-0"  >
<path style="stroke: none; stroke-width: 0; stroke-dasharray: none; stroke-linecap: butt; stroke-dashoffset: 0; stroke-linejoin: miter; stroke-miterlimit: 4; fill: rgb(150,222,255); fill-rule: nonzero; opacity: 1;"  paint-order="stroke"  transform=" translate(-214.785, 4.995)" d="M 8.4 -3.06 C 8.4 -3.75 8.13 -4.44 7.59 -4.89 C 7.23 -5.22 6.81 -5.4 6.33 -5.52 C 7.17 -6.03 7.53 -6.6 7.53 -7.62 C 7.53 -8.28 7.2 -8.94 6.69 -9.39 C 6.09 -9.87 5.37 -10.02 4.62 -10.02 L 2.34 -10.02 C 1.44 -10.02 0.93 -9.48 0.93 -8.61 L 0.93 -1.41 C 0.93 -0.51 1.44 0 2.34 0 L 5.34 0 C 7.08 0 8.4 -1.32 8.4 -3.06 Z M 5.37 -7.17 C 5.37 -6.6 4.95 -6.21 4.38 -6.21 L 3.24 -6.21 L 3.24 -8.01 L 4.29 -8.01 C 4.8 -8.01 5.37 -7.74 5.37 -7.17 Z M 6.03 -3.03 C 6.03 -2.79 5.94 -2.52 5.79 -2.34 C 5.52 -2.04 5.19 -2.01 4.83 -2.01 L 3.24 -2.01 L 3.24 -4.17 L 4.77 -4.17 C 5.49 -4.17 5.97 -3.9 6.03 -3.15 Z M 22.59 -0.96 L 22.59 -1.2 C 22.5 -1.5 22.29 -1.77 22.05 -2.01 L 20.1 -4.14 C 20.7 -4.29 21.24 -4.47 21.69 -4.89 C 22.26 -5.43 22.47 -6.21 22.47 -6.99 C 22.47 -7.83 22.08 -8.67 21.42 -9.21 C 20.73 -9.78 19.83 -9.99 18.96 -9.99 L 16.65 -9.99 C 15.75 -9.99 15.24 -9.48 15.24 -8.61 L 15.24 -1.14 C 15.24 -0.45 15.66 0.15 16.41 0.15 C 17.13 0.15 17.55 -0.45 17.55 -1.14 L 17.55 -4.08 L 20.52 -0.36 C 20.79 0.03 21.21 0.15 21.66 0.15 C 22.17 0.15 22.59 -0.42 22.59 -0.96 Z M 20.22 -6.81 C 20.22 -6.12 19.65 -5.67 18.96 -5.67 L 17.55 -5.67 L 17.55 -8.01 L 18.93 -8.01 C 19.59 -8.01 20.22 -7.5 20.22 -6.81 Z M 35.37 -1.02 C 35.37 -1.71 34.86 -2.07 34.23 -2.07 L 31.86 -2.07 L 31.86 -3.99 L 33.99 -3.99 C 34.62 -3.99 35.13 -4.38 35.13 -5.01 C 35.13 -5.7 34.62 -6.06 33.99 -6.06 L 31.86 -6.06 L 31.86 -7.95 L 34.23 -7.95 C 34.86 -7.95 35.37 -8.34 35.37 -8.97 C 35.37 -9.66 34.86 -10.02 34.23 -10.02 L 30.96 -10.02 C 30.06 -10.02 29.55 -9.48 29.55 -8.61 L 29.55 -1.41 C 29.55 -0.51 30.06 0 30.96 0 L 34.23 0 C 34.86 0 35.37 -0.39 35.37 -1.02 Z M 50.64 -0.78 L 50.64 -0.96 C 50.64 -1.11 50.61 -1.35 50.55 -1.5 L 47.85 -8.91 C 47.58 -9.66 46.98 -10.2 46.17 -10.2 C 45.36 -10.2 44.73 -9.66 44.46 -8.91 L 41.76 -1.5 C 41.73 -1.35 41.64 -1.08 41.64 -0.9 C 41.64 -0.87 41.67 -0.81 41.67 -0.78 C 41.76 -0.15 42.39 0.15 42.99 0.15 C 43.56 0.15 43.86 -0.54 44.01 -1.05 L 44.25 -1.92 L 48.09 -1.92 L 48.39 -0.81 C 48.51 -0.36 48.87 0.15 49.35 0.15 C 49.95 0.15 50.58 -0.15 50.64 -0.78 Z M 47.4 -3.96 L 44.97 -3.96 L 46.17 -7.77 Z M 63.81 -8.97 C 63.81 -9.66 63.3 -10.02 62.67 -10.02 L 57.69 -10.02 C 57.06 -10.02 56.55 -9.63 56.55 -8.97 C 56.55 -8.31 57.06 -7.95 57.69 -7.95 L 59.04 -7.95 L 59.04 -1.14 C 59.04 -0.45 59.46 0.15 60.21 0.15 C 60.96 0.15 61.35 -0.45 61.35 -1.14 L 61.35 -7.95 L 62.67 -7.95 C 63.3 -7.95 63.81 -8.34 63.81 -8.97 Z M 79.14 -1.14 L 79.14 -8.88 C 79.14 -9.57 78.72 -10.17 77.97 -10.17 C 77.25 -10.17 76.83 -9.57 76.83 -8.88 L 76.83 -6.15 L 72.57 -6.15 L 72.57 -8.88 C 72.57 -9.57 72.18 -10.17 71.43 -10.17 C 70.68 -10.17 70.29 -9.57 70.29 -8.88 L 70.29 -1.14 C 70.29 -0.45 70.71 0.15 71.43 0.15 C 72.18 0.15 72.57 -0.45 72.57 -1.14 L 72.57 -4.11 L 76.83 -4.11 L 76.83 -1.14 C 76.83 -0.45 77.25 0.15 77.97 0.15 C 78.72 0.15 79.14 -0.45 79.14 -1.14 Z M 101.94 -1.02 C 101.94 -1.71 101.43 -2.07 100.8 -2.07 L 98.43 -2.07 L 98.43 -8.88 C 98.43 -9.57 98.01 -10.17 97.29 -10.17 C 96.54 -10.17 96.12 -9.57 96.12 -8.88 L 96.12 -1.44 C 96.12 -0.54 96.66 0 97.56 0 L 100.8 0 C 101.43 0 101.94 -0.39 101.94 -1.02 Z M 110.37 -1.14 L 110.37 -8.88 C 110.37 -9.57 109.95 -10.17 109.23 -10.17 C 108.48 -10.17 108.06 -9.57 108.06 -8.88 L 108.06 -1.14 C 108.06 -0.45 108.48 0.15 109.23 0.15 C 109.95 0.15 110.37 -0.45 110.37 -1.14 Z M 123.48 -8.97 C 123.48 -9.66 122.97 -10.02 122.34 -10.02 L 119.04 -10.02 C 118.14 -10.02 117.63 -9.48 117.63 -8.61 L 117.63 -1.14 C 117.63 -0.45 118.05 0.15 118.8 0.15 C 119.52 0.15 119.94 -0.45 119.94 -1.14 L 119.94 -3.93 L 121.98 -3.93 C 122.61 -3.93 123.12 -4.29 123.12 -4.95 C 123.12 -5.61 122.61 -5.97 121.98 -5.97 L 119.94 -5.97 L 119.94 -7.95 L 122.34 -7.95 C 122.97 -7.95 123.48 -8.34 123.48 -8.97 Z M 136.17 -1.02 C 136.17 -1.71 135.66 -2.07 135.03 -2.07 L 132.66 -2.07 L 132.66 -3.99 L 134.79 -3.99 C 135.42 -3.99 135.93 -4.38 135.93 -5.01 C 135.93 -5.7 135.42 -6.06 134.79 -6.06 L 132.66 -6.06 L 132.66 -7.95 L 135.03 -7.95 C 135.66 -7.95 136.17 -8.34 136.17 -8.97 C 136.17 -9.66 135.66 -10.02 135.03 -10.02 L 131.76 -10.02 C 130.86 -10.02 130.35 -9.48 130.35 -8.61 L 130.35 -1.41 C 130.35 -0.51 130.86 0 131.76 0 L 135.03 0 C 135.66 0 136.17 -0.39 136.17 -1.02 Z M 159.39 -8.97 C 159.39 -9.66 158.88 -10.02 158.25 -10.02 L 153.27 -10.02 C 152.64 -10.02 152.13 -9.63 152.13 -8.97 C 152.13 -8.31 152.64 -7.95 153.27 -7.95 L 154.62 -7.95 L 154.62 -1.14 C 154.62 -0.45 155.04 0.15 155.79 0.15 C 156.54 0.15 156.93 -0.45 156.93 -1.14 L 156.93 -7.95 L 158.25 -7.95 C 158.88 -7.95 159.39 -8.34 159.39 -8.97 Z M 175.32 -5.07 C 175.32 -8.01 173.37 -10.26 170.37 -10.26 C 169.14 -10.26 167.97 -9.84 167.07 -9.03 C 165.93 -8.01 165.42 -6.57 165.42 -5.07 C 165.42 -3.66 165.81 -2.28 166.8 -1.23 C 167.73 -0.24 169.02 0.27 170.37 0.27 C 171.6 0.27 172.77 -0.12 173.67 -0.96 C 174.84 -2.01 175.32 -3.54 175.32 -5.07 Z M 172.86 -5.07 C 172.86 -3.48 172.2 -1.8 170.37 -1.8 C 168.6 -1.8 167.88 -3.51 167.88 -5.07 C 167.88 -5.88 168.06 -6.78 168.63 -7.41 C 169.05 -7.89 169.71 -8.19 170.34 -8.19 C 172.11 -8.19 172.86 -6.63 172.86 -5.07 Z M 199.59 -8.94 C 199.59 -9.57 199.17 -10.17 198.57 -10.17 C 198.09 -10.17 197.7 -9.96 197.43 -9.57 L 195.51 -6.9 L 193.68 -9.54 C 193.41 -9.93 193.02 -10.14 192.54 -10.14 C 191.94 -10.14 191.52 -9.51 191.52 -8.91 C 191.52 -8.55 191.76 -8.31 191.94 -8.04 L 194.37 -4.74 L 194.37 -1.14 C 194.37 -0.45 194.79 0.15 195.51 0.15 C 196.26 0.15 196.65 -0.45 196.65 -1.14 L 196.65 -4.74 L 199.14 -8.01 C 199.35 -8.28 199.59 -8.61 199.59 -8.94 Z M 215.79 -5.07 C 215.79 -8.01 213.84 -10.26 210.84 -10.26 C 209.61 -10.26 208.44 -9.84 207.54 -9.03 C 206.4 -8.01 205.89 -6.57 205.89 -5.07 C 205.89 -3.66 206.28 -2.28 207.27 -1.23 C 208.2 -0.24 209.49 0.27 210.84 0.27 C 212.07 0.27 213.24 -0.12 214.14 -0.96 C 215.31 -2.01 215.79 -3.54 215.79 -5.07 Z M 213.33 -5.07 C 213.33 -3.48 212.67 -1.8 210.84 -1.8 C 209.07 -1.8 208.35 -3.51 208.35 -5.07 C 208.35 -5.88 208.53 -6.78 209.1 -7.41 C 209.52 -7.89 210.18 -8.19 210.81 -8.19 C 212.58 -8.19 213.33 -6.63 213.33 -5.07 Z M 231.18 -4.38 L 231.18 -8.88 C 231.18 -9.57 230.76 -10.14 230.01 -10.14 C 229.29 -10.14 228.87 -9.57 228.87 -8.88 L 228.87 -4.38 C 228.87 -3.78 228.81 -3.18 228.45 -2.67 C 228.09 -2.19 227.43 -1.89 226.83 -1.89 C 226.26 -1.89 225.63 -2.13 225.24 -2.58 C 224.91 -3 224.76 -3.6 224.76 -4.14 L 224.76 -8.88 C 224.76 -9.57 224.37 -10.14 223.62 -10.14 C 222.87 -10.14 222.48 -9.57 222.48 -8.88 L 222.48 -3.81 C 222.48 -1.38 224.49 0.27 226.83 0.27 C 228.18 0.27 229.53 -0.36 230.37 -1.41 C 231.09 -2.34 231.18 -3.27 231.18 -4.38 Z M 245.67 -0.96 L 245.67 -1.2 C 245.58 -1.5 245.37 -1.77 245.13 -2.01 L 243.18 -4.14 C 243.78 -4.29 244.32 -4.47 244.77 -4.89 C 245.34 -5.43 245.55 -6.21 245.55 -6.99 C 245.55 -7.83 245.16 -8.67 244.5 -9.21 C 243.81 -9.78 242.91 -9.99 242.04 -9.99 L 239.73 -9.99 C 238.83 -9.99 238.32 -9.48 238.32 -8.61 L 238.32 -1.14 C 238.32 -0.45 238.74 0.15 239.49 0.15 C 240.21 0.15 240.63 -0.45 240.63 -1.14 L 240.63 -4.08 L 243.6 -0.36 C 243.87 0.03 244.29 0.15 244.74 0.15 C 245.25 0.15 245.67 -0.42 245.67 -0.96 Z M 243.3 -6.81 C 243.3 -6.12 242.73 -5.67 242.04 -5.67 L 240.63 -5.67 L 240.63 -8.01 L 242.01 -8.01 C 242.67 -8.01 243.3 -7.5 243.3 -6.81 Z M 270.03 -1.38 C 270.03 -1.92 269.7 -2.46 269.13 -2.46 L 269.04 -2.46 C 268.89 -2.46 268.74 -2.43 268.59 -2.37 L 267.93 -2.04 C 267.63 -1.92 267.3 -1.89 267 -1.89 C 266.4 -1.89 265.77 -2.1 265.32 -2.52 C 264.63 -3.18 264.45 -4.14 264.45 -5.04 C 264.45 -6.69 265.23 -8.1 267.03 -8.1 C 267.42 -8.1 267.81 -8.01 268.2 -7.86 C 268.47 -7.74 268.74 -7.62 269.04 -7.62 C 269.67 -7.62 269.94 -8.13 269.94 -8.7 C 269.94 -9.93 267.93 -10.26 266.97 -10.26 C 264.06 -10.26 262.02 -8.16 262.02 -5.31 C 262.02 -3.75 262.38 -2.13 263.55 -1.05 C 264.45 -0.18 265.65 0.27 266.88 0.27 C 267.75 0.27 268.59 0.15 269.34 -0.33 C 269.7 -0.54 270.03 -0.93 270.03 -1.38 Z M 286.14 -5.07 C 286.14 -8.01 284.19 -10.26 281.19 -10.26 C 279.96 -10.26 278.79 -9.84 277.89 -9.03 C 276.75 -8.01 276.24 -6.57 276.24 -5.07 C 276.24 -3.66 276.63 -2.28 277.62 -1.23 C 278.55 -0.24 279.84 0.27 281.19 0.27 C 282.42 0.27 283.59 -0.12 284.49 -0.96 C 285.66 -2.01 286.14 -3.54 286.14 -5.07 Z M 283.68 -5.07 C 283.68 -3.48 283.02 -1.8 281.19 -1.8 C 279.42 -1.8 278.7 -3.51 278.7 -5.07 C 278.7 -5.88 278.88 -6.78 279.45 -7.41 C 279.87 -7.89 280.53 -8.19 281.16 -8.19 C 282.93 -8.19 283.68 -6.63 283.68 -5.07 Z M 301.53 -5.01 C 301.53 -6.54 300.96 -8.16 299.67 -9.09 C 298.77 -9.78 297.6 -10.02 296.49 -10.02 L 294.33 -10.02 C 293.43 -10.02 292.92 -9.48 292.92 -8.61 L 292.92 -1.44 C 292.92 -0.57 293.43 -0.03 294.3 -0.03 L 296.82 0 L 296.88 0 C 299.76 0 301.53 -2.16 301.53 -5.01 Z M 299.07 -5.01 C 299.07 -4.17 298.86 -3.3 298.29 -2.67 C 297.78 -2.16 297.06 -2.01 296.37 -2.01 L 295.23 -2.01 L 295.23 -8.01 L 296.1 -8.01 C 296.85 -8.01 297.6 -7.89 298.17 -7.38 C 298.86 -6.78 299.07 -5.88 299.07 -5.01 Z M 310.65 -1.14 L 310.65 -8.88 C 310.65 -9.57 310.23 -10.17 309.51 -10.17 C 308.76 -10.17 308.34 -9.57 308.34 -8.88 L 308.34 -1.14 C 308.34 -0.45 308.76 0.15 309.51 0.15 C 310.23 0.15 310.65 -0.45 310.65 -1.14 Z M 326.73 -1.17 L 326.73 -8.88 C 326.73 -9.57 326.31 -10.17 325.59 -10.17 C 324.84 -10.17 324.42 -9.57 324.42 -8.88 L 324.42 -4.08 L 320.01 -9.66 C 319.74 -9.99 319.47 -10.17 319.05 -10.17 C 318.36 -10.17 317.91 -9.63 317.91 -8.97 L 317.91 -1.14 C 317.91 -0.45 318.33 0.15 319.08 0.15 C 319.8 0.15 320.22 -0.45 320.22 -1.14 L 320.22 -6.06 L 324.75 -0.3 C 324.96 0 325.29 0.15 325.65 0.15 C 325.95 0.15 326.22 0.03 326.43 -0.21 C 326.67 -0.48 326.73 -0.81 326.73 -1.17 Z M 343.08 -4.47 C 343.08 -5.37 342.81 -5.91 341.85 -5.91 L 339.39 -5.91 C 338.79 -5.91 338.25 -5.55 338.25 -4.89 C 338.25 -4.23 338.79 -3.87 339.39 -3.87 L 340.74 -3.87 C 340.65 -3.39 340.53 -2.97 340.23 -2.58 C 339.84 -2.01 339.21 -1.8 338.55 -1.8 C 336.78 -1.8 335.97 -3.39 335.97 -4.98 C 335.97 -6.57 336.81 -8.19 338.58 -8.19 C 339.06 -8.19 339.6 -8.07 339.99 -7.83 L 340.59 -7.44 C 340.83 -7.29 341.1 -7.17 341.4 -7.17 C 341.91 -7.17 342.39 -7.65 342.39 -8.16 L 342.39 -8.28 C 342.36 -8.85 341.85 -9.24 341.4 -9.54 C 340.53 -10.05 339.57 -10.26 338.58 -10.26 C 335.67 -10.26 333.54 -7.95 333.54 -5.1 C 333.54 -3.72 333.87 -2.4 334.8 -1.35 C 335.73 -0.27 337.08 0.27 338.49 0.27 C 339.75 0.27 340.92 -0.18 341.79 -1.11 C 342.63 -2.01 343.08 -3.24 343.08 -4.47 Z M 366.54 -3.27 C 366.54 -5.13 365.01 -5.82 363.39 -6.27 L 362.79 -6.42 C 362.37 -6.54 361.86 -6.78 361.86 -7.29 C 361.86 -7.86 362.49 -8.1 363 -8.1 C 363.33 -8.1 363.69 -8.04 364.02 -7.92 L 364.44 -7.77 C 364.56 -7.74 364.68 -7.71 364.8 -7.71 C 365.4 -7.71 365.85 -8.22 365.85 -8.85 C 365.85 -10.02 363.93 -10.26 363.03 -10.26 C 361.17 -10.26 359.4 -9.06 359.4 -7.05 C 359.4 -5.22 360.57 -4.71 362.1 -4.26 C 362.64 -4.11 363.24 -3.96 363.72 -3.66 C 363.96 -3.51 364.08 -3.24 364.08 -2.94 C 364.08 -2.25 363.42 -1.89 362.82 -1.89 C 362.43 -1.89 362.04 -1.98 361.71 -2.13 L 360.9 -2.43 C 360.72 -2.49 360.54 -2.52 360.33 -2.52 C 359.79 -2.52 359.34 -2.01 359.34 -1.5 C 359.34 -0.93 359.7 -0.51 360.18 -0.27 C 360.99 0.12 361.92 0.27 362.82 0.27 C 363.84 0.27 364.98 -0.03 365.7 -0.81 C 366.3 -1.47 366.54 -2.4 366.54 -3.27 Z M 381.69 -0.9 C 381.69 -1.44 381.39 -1.77 381.03 -2.16 L 378 -5.37 L 380.61 -8.04 C 380.88 -8.34 381.09 -8.67 381.09 -9.09 C 381.09 -9.69 380.55 -10.17 379.95 -10.17 C 379.56 -10.17 379.2 -9.9 378.96 -9.6 L 375.81 -6.06 L 375.81 -8.88 C 375.81 -9.57 375.39 -10.17 374.67 -10.17 C 373.92 -10.17 373.5 -9.57 373.5 -8.88 L 373.5 -1.14 C 373.5 -0.45 373.92 0.15 374.67 0.15 C 375.39 0.15 375.81 -0.45 375.81 -1.14 L 375.81 -4.5 L 379.56 -0.39 C 379.83 -0.09 380.16 0.15 380.55 0.15 C 381.18 0.15 381.69 -0.24 381.69 -0.9 Z M 390.6 -1.14 L 390.6 -8.88 C 390.6 -9.57 390.18 -10.17 389.46 -10.17 C 388.71 -10.17 388.29 -9.57 388.29 -8.88 L 388.29 -1.14 C 388.29 -0.45 388.71 0.15 389.46 0.15 C 390.18 0.15 390.6 -0.45 390.6 -1.14 Z M 403.68 -1.02 C 403.68 -1.71 403.17 -2.07 402.54 -2.07 L 400.17 -2.07 L 400.17 -8.88 C 400.17 -9.57 399.75 -10.17 399.03 -10.17 C 398.28 -10.17 397.86 -9.57 397.86 -8.88 L 397.86 -1.44 C 397.86 -0.54 398.4 0 399.3 0 L 402.54 0 C 403.17 0 403.68 -0.39 403.68 -1.02 Z M 415.62 -1.02 C 415.62 -1.71 415.11 -2.07 414.48 -2.07 L 412.11 -2.07 L 412.11 -8.88 C 412.11 -9.57 411.69 -10.17 410.97 -10.17 C 410.22 -10.17 409.8 -9.57 409.8 -8.88 L 409.8 -1.44 C 409.8 -0.54 410.34 0 411.24 0 L 414.48 0 C 415.11 0 415.62 -0.39 415.62 -1.02 Z M 428.64 -3.27 C 428.64 -5.13 427.11 -5.82 425.49 -6.27 L 424.89 -6.42 C 424.47 -6.54 423.96 -6.78 423.96 -7.29 C 423.96 -7.86 424.59 -8.1 425.1 -8.1 C 425.43 -8.1 425.79 -8.04 426.12 -7.92 L 426.54 -7.77 C 426.66 -7.74 426.78 -7.71 426.9 -7.71 C 427.5 -7.71 427.95 -8.22 427.95 -8.85 C 427.95 -10.02 426.03 -10.26 425.13 -10.26 C 423.27 -10.26 421.5 -9.06 421.5 -7.05 C 421.5 -5.22 422.67 -4.71 424.2 -4.26 C 424.74 -4.11 425.34 -3.96 425.82 -3.66 C 426.06 -3.51 426.18 -3.24 426.18 -2.94 C 426.18 -2.25 425.52 -1.89 424.92 -1.89 C 424.53 -1.89 424.14 -1.98 423.81 -2.13 L 423 -2.43 C 422.82 -2.49 422.64 -2.52 422.43 -2.52 C 421.89 -2.52 421.44 -2.01 421.44 -1.5 C 421.44 -0.93 421.8 -0.51 422.28 -0.27 C 423.09 0.12 424.02 0.27 424.92 0.27 C 425.94 0.27 427.08 -0.03 427.8 -0.81 C 428.4 -1.47 428.64 -2.4 428.64 -3.27 Z" stroke-linecap="round" />
</g>
</g>
</g>
</svg>